<?xml version="1.0" encoding="utf-8"?>
<!-- Generator: Adobe Illustrator 16.0.4, SVG Export Plug-In . SVG Version: 6.00 Build 0)  -->
<!DOCTYPE svg PUBLIC "-//W3C//DTD SVG 1.1//EN" "http://www.w3.org/Graphics/SVG/1.1/DTD/svg11.dtd">
<svg version="1.1" id="Calque_1" xmlns="http://www.w3.org/2000/svg" xmlns:xlink="http://www.w3.org/1999/xlink" x="0px" y="0px"
	 width="180px" height="114px" viewBox="0 0 180 114" enable-background="new 0 0 180 114" xml:space="preserve">
<g>
	<path fill="#FFFFFF" d="M176.007,47.027h-27.509l8.745-43.114L158.04,0h-3.989L25.801,0.02h-0.098l-0.115,0.01
		c-6.711,0.449-12.914,5.695-14.421,12.218l-0.012,0.043l-0.006,0.047l-9.107,44.87L1.25,61.125h3.99h18.882l-6.53,32.199
		l-0.8,3.912h3.987h137.127c3.205,0,6.45-1.206,9.131-3.407c2.681-2.188,4.509-5.133,5.138-8.273l7.023-34.615L180,47.027H176.007z"
		/>
	<g>
		<path fill="#E40612" d="M29.759,50.425c2.679-2.197,5.922-3.398,9.135-3.398h106.28l8.877-43.758L25.801,3.29
			c-5.255,0.352-10.267,4.553-11.454,9.692L5.24,57.864h19.576C25.592,55.031,27.319,52.421,29.759,50.425z"/>
	</g>
	<path fill="#009767" d="M176.007,50.293H38.894c-5.085,0-10.074,4.076-11.085,9.07l-7.029,34.614h137.127
		c5.079,0,10.068-4.084,11.081-9.071L176.007,50.293z"/>
	<path fill="#FFFFFF" d="M56.646,63.534c-0.348-1.169-0.931-2.174-1.744-3.012c-0.816-0.837-1.827-1.483-3.021-1.948
		c-1.195-0.471-2.488-0.697-3.889-0.697h-9.388c-2.036,0-4.028,1.622-4.433,3.621l-5.076,24.921h7.797l1.804-8.87h5.284
		c1.405,0,2.802-0.266,4.198-0.785c1.394-0.528,2.677-1.257,3.855-2.174c1.174-0.919,2.181-1.991,3.017-3.216
		c0.836-1.229,1.404-2.557,1.684-3.979C57.029,66.002,56.994,64.714,56.646,63.534z M48.809,67.314
		c-0.085,0.434-0.261,0.831-0.505,1.197c-0.248,0.367-0.56,0.695-0.913,0.97c-0.353,0.285-0.756,0.5-1.186,0.661
		c-0.434,0.161-0.873,0.234-1.323,0.234h-4.535l0.883-4.324c0.199-0.999,1.203-1.813,2.213-1.813h2.69c0.451,0,0.86,0.08,1.23,0.234
		c0.365,0.16,0.677,0.375,0.909,0.66c0.246,0.28,0.42,0.601,0.517,0.967C48.893,66.471,48.895,66.871,48.809,67.314z"/>
	<path fill="#FFFFFF" d="M81.604,71.55c0.93-1.218,1.541-2.548,1.832-3.965c0.171-0.86,0.228-1.763,0.147-2.71
		c-0.067-0.941-0.282-1.77-0.63-2.482c-0.291-0.565-0.662-1.107-1.129-1.652c-0.466-0.538-0.988-1.021-1.577-1.452
		c-0.596-0.428-1.217-0.772-1.896-1.037c-0.669-0.25-1.355-0.375-2.055-0.375h-10.89c-2.038,0-4.037,1.622-4.438,3.621
		l-5.074,24.921h8.026l1.759-8.833h4.912l3.264,8.833h8.74l-4.432-11.776C79.539,73.812,80.685,72.783,81.604,71.55z M75.387,67.314
		c-0.088,0.434-0.261,0.831-0.511,1.197c-0.242,0.367-0.556,0.695-0.904,0.97c-0.356,0.285-0.755,0.5-1.185,0.661
		c-0.434,0.161-0.873,0.234-1.325,0.234h-4.538l0.882-4.324c0.205-0.999,1.205-1.813,2.217-1.813h2.69
		c0.449,0,0.859,0.08,1.229,0.234c0.358,0.16,0.674,0.375,0.914,0.66c0.24,0.28,0.418,0.601,0.511,0.967
		C75.473,66.471,75.473,66.871,75.387,67.314z"/>
	<path fill="#FFFFFF" d="M44.205,36.142L44.205,36.142l-3.602-21.735l0,0l-0.435-2.621c-0.123-0.756-0.845-1.366-1.608-1.366h-1.393
		v0.006h-0.79V10.42h-0.936c-1.517,0-3.377,1.08-4.13,2.403l-1.821,3.17l0,0L15.024,41.232h5.755l0,0h1.554
		c0.76,0,1.689-0.539,2.071-1.197l0.817-1.434l0.941-1.623h9.479l0.719,4.253h4.73l0,0h2.578c0.765,0,1.277-0.619,1.152-1.36
		L44.205,36.142z M29.933,29.798l4.112-8.134l0.756,8.134H29.933z"/>
	<path fill="#FFFFFF" d="M73.244,10.42h-1.322c-1.513,0-2.999,1.22-3.307,2.71l-0.667,3.281l0,0l-2.657,13.028
		c-0.117,0.58-0.342,1.115-0.683,1.608c-0.334,0.49-0.741,0.916-1.209,1.269c-0.471,0.361-0.986,0.641-1.541,0.83
		c-0.556,0.2-1.126,0.301-1.708,0.301c-0.549,0-1.066-0.101-1.542-0.301c-0.478-0.189-0.877-0.469-1.201-0.83
		c-0.323-0.354-0.557-0.779-0.691-1.269c-0.137-0.493-0.145-1.028-0.027-1.608l3.872-19.013H56.06V10.42h-1.308
		c-1.52,0-3.005,1.22-3.311,2.71l-0.667,3.281l-2.764,13.548c-0.282,1.395-0.323,2.725-0.112,3.966
		c0.21,1.248,0.628,2.371,1.257,3.376c0.629,1.008,1.438,1.873,2.426,2.6c0.987,0.726,2.103,1.286,3.344,1.691
		c0.545,0.184,1.105,0.323,1.684,0.433c0.571,0.102,1.154,0.163,1.767,0.163c0.609,0,1.227-0.062,1.855-0.163
		c0.628-0.109,1.252-0.249,1.872-0.433c1.408-0.405,2.749-0.965,4.032-1.691c1.283-0.727,2.449-1.592,3.479-2.6
		c1.045-1.005,1.916-2.128,2.642-3.376c0.713-1.241,1.215-2.571,1.501-3.966l3.976-19.533h-4.488V10.42z"/>
	<path fill="#FFFFFF" d="M108.209,17.037l1.364-6.61H90.267l0.93-0.006h-3.418c-3.034,0-5.836,1.591-6.241,3.54
		c-0.162,0.822-0.675,3.327-0.714,3.533c-0.029,0.206-0.125,0.55,0.44,0.55c0.708,0,9.385,0,9.385,0l-4.721,23.189h8.359
		l4.725-23.189c0,0,7.535,0,7.879,0C107.984,18.043,108.209,17.037,108.209,17.037z"/>
	<path fill="#FFFFFF" d="M94.117,86.427l5.881-28.602h-4.2v0.009c-2.015,0.036-3.97,1.647-4.377,3.62l-5.14,24.966L94.117,86.427z"
		/>
	<path fill="#FFFFFF" d="M126.924,57.877c-0.67,0-0.978,0.339-1.196,0.557l-9.039,11.062l-4.604-11.297
		c-0.125-0.219-0.318-0.322-0.565-0.322h-3.611c-1.943,0.029-3.853,1.637-4.255,3.621L98.58,86.419h7.612l2.987-14.678l4.17,10.073
		c0.055,0.146,0.154,0.25,0.318,0.294c0.17,0.051,0.324,0.082,0.473,0.082c0.13,0,0.284-0.031,0.465-0.082
		c0.182-0.044,0.33-0.148,0.436-0.294l8.28-10.073l-2.993,14.678h7.609l5.816-28.542H126.924z"/>
	<path fill="#8C040B" d="M128.085,40.351c6.499-3.59,10.658-7.314,11.695-10.75c1.021-3.393,1.34-8.076-3.047-10.297
		c-4.087-2.039-11.228,2.601-11.569,3.944c0,0,2.911-1.711,6.033-0.931c0,0,4.59,0.603,1.496,6.446
		c-3.155,5.969-9.682,7.784-12.82,5.324"/>
	<path fill="#FFFFFF" d="M129.239,9.421c-1.563,0.038-7.284-0.051-13.803,5.309c-3.909,3.209-8.69,11.205-6.276,18.549
		c2.747,9.362,13.746,11.044,21.085,7.101c6.644-3.568,9.512-8.237,10.571-11.756c1.058-3.502,1.399-8.482-3.276-11.035
		c-4.458-2.408-12.147,2.502-12.457,3.965c0,0,3.125-1.792,6.555-0.838c0,0,4.941,0.771,1.761,6.919
		c-3.177,6.143-10.021,7.952-13.525,5.389c-3.563-2.599-3.136-7.745-0.223-11.743c3.026-4.139,7.068-5.954,10.487-6.961
		c3.433-1.005,7.864-0.626,10.108,1.182C139.537,14.165,135.386,9.281,129.239,9.421z"/>
	<g>
		<path fill="#005D3F" d="M152.842,86.213c6.17-3.414,10.11-6.954,11.099-10.206c0.975-3.216,1.27-7.658-2.894-9.774
			c-3.874-1.93-10.655,2.467-10.972,3.747c0,0,2.757-1.625,5.721-0.882c0,0,4.354,0.564,1.422,6.116
			c-2.993,5.668-9.186,7.387-12.167,5.044"/>
		<path fill="#FFFFFF" d="M153.945,56.864c-1.485,0.031-6.916-0.053-13.105,5.032c-3.708,3.053-8.246,10.638-5.949,17.609
			c2.603,8.875,13.048,10.469,20.007,6.729c6.296-3.384,9.025-7.82,10.031-11.144c1.003-3.334,1.325-8.056-3.109-10.478
			c-4.236-2.292-11.523,2.369-11.826,3.765c0,0,2.97-1.701,6.223-0.802c0,0,4.687,0.736,1.669,6.566
			c-3.015,5.841-9.504,7.55-12.84,5.112c-3.377-2.459-2.966-7.35-0.206-11.139c2.87-3.931,6.699-5.649,9.949-6.602
			c3.252-0.961,7.466-0.595,9.592,1.123C163.716,61.376,159.771,56.733,153.945,56.864z"/>
	</g>
	<g>
		<path fill="#748388" d="M1.745,104.397h3.479c0.98,0,2.272,0.099,3.004,0.687c1.04,0.83,1.083,2.189,0.823,3.408
			c-0.391,1.827-1.256,3.18-3.06,3.835c-0.914,0.312-1.917,0.312-2.488,0.312H0L1.745,104.397z M2.683,111.056h0.983
			c1.516-0.017,2.624-0.663,3.038-2.586c0.526-2.497-1.35-2.497-2.044-2.497l-0.904-0.014L2.683,111.056z"/>
		<path fill="#748388" d="M11.551,104.417h6.188l-0.33,1.579h-3.929l-0.362,1.712h3.696l-0.343,1.571h-3.699l-0.365,1.76h4.02
			l-0.345,1.6H9.808L11.551,104.417z"/>
		<path fill="#748388" d="M20.31,110.012c-0.066,0.33-0.247,1.284,1.115,1.284c0.193,0,1.221,0,1.426-0.938
			c0.078-0.392-0.023-0.654-0.547-0.802l-1.912-0.527c-0.526-0.147-1.927-0.538-1.556-2.263c0.281-1.335,1.552-2.585,4.015-2.585
			c3.22,0,2.991,1.753,2.806,2.636h-2.314c0.055-0.258,0.263-1.146-0.838-1.146c-0.657,0-1.165,0.375-1.261,0.866
			c-0.142,0.611,0.322,0.758,0.646,0.852l1.452,0.396c1.039,0.29,2.268,0.626,1.889,2.375c-0.381,1.841-2.134,2.664-4.195,2.664
			c-0.855,0-2.209-0.14-2.788-0.985c-0.466-0.658-0.308-1.476-0.234-1.827H20.31z"/>
		<path fill="#748388" d="M32.275,104.397h3.788c0.643,0,1.476,0,2.073,0.424c0.598,0.417,0.907,1.157,0.678,2.23
			c-0.307,1.454-1.363,2.087-1.724,2.249c-0.721,0.361-1.711,0.361-2.157,0.361l-1.477,0.008l-0.633,2.969H30.53L32.275,104.397z
			 M33.793,108.096h1.02c0.558,0,1.462,0,1.685-1.108c0.221-1.009-0.582-1.06-1.242-1.06h-1.002L33.793,108.096z"/>
		<path fill="#748388" d="M40.768,104.397h3.815c1.485,0,2.03,0.085,2.406,0.592c0.203,0.25,0.419,0.704,0.24,1.594
			c-0.191,0.911-0.642,1.291-1.087,1.536c-0.594,0.33-1.104,0.386-1.347,0.425l-0.01,0.045c1.597,0.045,1.53,0.756,1.444,2.016
			c-0.041,0.562-0.113,1.448-0.041,2.033h-2.481c-0.031-0.497,0.049-1.128,0.131-1.863c0.1-0.983,0.146-1.357-0.881-1.357h-0.961
			l-0.678,3.22h-2.295L40.768,104.397z M42.321,107.933h0.852c0.504,0,0.762,0,0.96-0.065c0.534-0.159,0.743-0.675,0.798-0.94
			c0.22-1.013-0.673-1.013-1.336-1.013h-0.85L42.321,107.933z"/>
		<path fill="#748388" d="M49.998,105.307c1.266-1.051,2.866-1.146,3.475-1.146c3.286,0,3.67,2.37,3.237,4.383
			c-0.696,3.289-3.237,4.296-5.204,4.296c-2.188,0-3.965-1.221-3.321-4.29C48.304,108.002,48.743,106.363,49.998,105.307z
			 M51.896,111.157c1.636,0,2.223-1.505,2.469-2.651c0.237-1.158,0.091-1.725-0.084-2.091c-0.236-0.456-0.741-0.594-1.241-0.594
			c-1.508,0-2.196,1.299-2.507,2.724C50.261,109.85,50.378,111.157,51.896,111.157z"/>
		<path fill="#748388" d="M60.045,110.012c-0.061,0.33-0.237,1.284,1.116,1.284c0.198,0,1.227,0,1.428-0.938
			c0.084-0.392-0.021-0.654-0.545-0.802l-1.913-0.527c-0.529-0.147-1.928-0.538-1.562-2.263c0.286-1.335,1.55-2.585,4.02-2.585
			c3.224,0,2.99,1.753,2.808,2.636h-2.315c0.055-0.258,0.258-1.146-0.834-1.146c-0.665,0-1.16,0.375-1.266,0.866
			c-0.137,0.611,0.327,0.758,0.647,0.852l1.452,0.396c1.037,0.29,2.276,0.626,1.894,2.375c-0.392,1.841-2.134,2.664-4.2,2.664
			c-0.855,0-2.215-0.14-2.788-0.985c-0.468-0.658-0.308-1.476-0.237-1.827H60.045z"/>
		<path fill="#748388" d="M68.823,110.944L66.821,114h-1.55l1.404-3.056H68.823z"/>
		<path fill="#748388" d="M76.157,104.397h3.483c0.983,0,2.272,0.099,3.003,0.687c1.042,0.83,1.078,2.189,0.82,3.408
			c-0.393,1.827-1.252,3.18-3.06,3.835c-0.91,0.312-1.913,0.312-2.486,0.312h-3.504L76.157,104.397z M77.093,111.056h0.989
			c1.513-0.017,2.622-0.663,3.033-2.586c0.522-2.497-1.354-2.497-2.047-2.497l-0.903-0.014L77.093,111.056z"/>
		<path fill="#748388" d="M85.965,104.417h6.181l-0.325,1.579h-3.929l-0.361,1.712h3.691l-0.34,1.571h-3.698l-0.367,1.76h4.019
			l-0.338,1.6h-6.281L85.965,104.417z"/>
		<path fill="#748388" d="M94.714,110.012c-0.053,0.33-0.24,1.284,1.123,1.284c0.193,0,1.217,0,1.428-0.938
			c0.076-0.392-0.025-0.654-0.549-0.802l-1.906-0.527c-0.538-0.147-1.927-0.538-1.562-2.263c0.286-1.335,1.548-2.585,4.017-2.585
			c3.217,0,2.987,1.753,2.804,2.636h-2.317c0.061-0.258,0.266-1.146-0.832-1.146c-0.66,0-1.162,0.375-1.268,0.866
			c-0.133,0.611,0.332,0.758,0.652,0.852l1.447,0.396c1.05,0.29,2.272,0.626,1.894,2.375c-0.384,1.841-2.129,2.664-4.198,2.664
			c-0.855,0-2.212-0.14-2.784-0.985c-0.47-0.658-0.308-1.476-0.239-1.827H94.714z"/>
		<path fill="#748388" d="M106.688,104.397h3.79c0.645,0,1.473,0,2.069,0.424c0.6,0.417,0.914,1.157,0.679,2.23
			c-0.306,1.454-1.369,2.087-1.718,2.249c-0.722,0.361-1.712,0.361-2.157,0.361l-1.483,0.008l-0.627,2.969h-2.302L106.688,104.397z
			 M108.205,108.096h1.016c0.562,0,1.466,0,1.688-1.108c0.223-1.009-0.577-1.06-1.246-1.06h-0.994L108.205,108.096z"/>
		<path fill="#748388" d="M115.183,104.397h3.812c1.479,0,2.03,0.085,2.41,0.592c0.202,0.25,0.415,0.704,0.233,1.594
			c-0.192,0.911-0.635,1.291-1.08,1.536c-0.598,0.33-1.107,0.386-1.348,0.425l-0.012,0.045c1.594,0.045,1.529,0.756,1.447,2.016
			c-0.047,0.562-0.113,1.448-0.047,2.033h-2.478c-0.035-0.497,0.047-1.128,0.126-1.863c0.104-0.983,0.154-1.357-0.878-1.357h-0.955
			l-0.686,3.22h-2.292L115.183,104.397z M116.735,107.933h0.854c0.498,0,0.751,0,0.962-0.065c0.534-0.159,0.744-0.675,0.795-0.94
			c0.221-1.013-0.678-1.013-1.335-1.013h-0.855L116.735,107.933z"/>
		<path fill="#748388" d="M124.415,105.307c1.269-1.051,2.86-1.146,3.47-1.146c3.285,0,3.681,2.37,3.238,4.383
			c-0.69,3.289-3.238,4.296-5.204,4.296c-2.189,0-3.972-1.221-3.322-4.29C122.714,108.002,123.157,106.363,124.415,105.307z
			 M126.309,111.157c1.629,0,2.225-1.505,2.465-2.651c0.241-1.158,0.096-1.725-0.082-2.091c-0.233-0.456-0.742-0.594-1.242-0.594
			c-1.507,0-2.193,1.299-2.503,2.724C124.673,109.85,124.788,111.157,126.309,111.157z"/>
		<path fill="#748388" d="M133.596,104.397h3.589l0.193,5.585l2.475-5.585l3.605-0.01l-1.759,8.251h-2.154l1.579-6.922l-3.43,6.922
			h-2.054l-0.397-6.983l-1.427,6.983h-1.974L133.596,104.397z"/>
		<path fill="#748388" d="M146.023,105.307c1.26-1.051,2.856-1.146,3.466-1.146c3.287,0,3.683,2.37,3.24,4.383
			c-0.694,3.289-3.24,4.296-5.204,4.296c-2.194,0-3.972-1.221-3.319-4.29C144.321,108.002,144.763,106.363,146.023,105.307z
			 M147.913,111.157c1.635,0,2.229-1.505,2.467-2.651c0.238-1.158,0.09-1.725-0.084-2.091c-0.236-0.456-0.74-0.594-1.24-0.594
			c-1.507,0-2.199,1.299-2.501,2.724C146.281,109.85,146.393,111.157,147.913,111.157z"/>
		<path fill="#748388" d="M156.063,110.012c-0.061,0.33-0.242,1.284,1.119,1.284c0.189,0,1.217,0,1.424-0.938
			c0.084-0.392-0.025-0.654-0.545-0.802l-1.91-0.527c-0.538-0.147-1.925-0.538-1.562-2.263c0.284-1.335,1.552-2.585,4.017-2.585
			c3.221,0,2.991,1.753,2.806,2.636h-2.311c0.051-0.258,0.263-1.146-0.837-1.146c-0.658,0-1.166,0.375-1.266,0.866
			c-0.141,0.611,0.33,0.758,0.65,0.852l1.452,0.396c1.033,0.29,2.268,0.626,1.889,2.375c-0.379,1.841-2.133,2.664-4.196,2.664
			c-0.857,0-2.218-0.14-2.784-0.985c-0.469-0.658-0.312-1.476-0.243-1.827H156.063z"/>
	</g>
</g>
</svg>
